<svg id="Pslib_logo" data-name="Pslib logo" xmlns="http://www.w3.org/2000/svg" width="90.44" height="90.547" viewBox="0 0 90.44 90.547">
  <g id="Group_5" data-name="Group 5">
    <g id="Group_2" data-name="Group 2">
      <path id="Path_1" data-name="Path 1" d="M90.44,45.274A45.22,45.22,0,1,1,45.22,0,45.244,45.244,0,0,1,90.44,45.274Z" fill="#2f65b0"/>
      <g id="Group_1" data-name="Group 1" transform="translate(2.604 2.607)">
        <path id="Path_2" data-name="Path 2" d="M23.962,29.682a4.238,4.238,0,0,1-4.087,3.12H17.057c.032.065.064.125.1.191l0,0c.006.011.015.027.023.039.085.143.178.286.278.423.026.036.05.068.077.1.051.068.1.13.155.19a1.065,1.065,0,0,0,.1.107,3.276,3.276,0,0,0,.267.273c.044.045.089.084.136.125s.1.089.156.135c.074.057.148.113.224.167.059.041.12.078.181.118s.147.093.224.135c.046.024.091.055.139.079.112.057.227.114.342.164.027.011.054.019.083.029.1.044.208.081.316.12l.123.037c.129.037.262.076.4.105a.269.269,0,0,1,.034,0c.13.024.261.045.4.06a.871.871,0,0,0,.112.008,3.974,3.974,0,0,0,.441.024,4.783,4.783,0,0,0,.811-.073c.056-.006.111-.013.164-.024A4.851,4.851,0,0,0,26.2,30.6c0-.048-.005-.092-.006-.139,0-.123-.005-.243-.018-.362-.007-.056-.018-.105-.026-.157-.015-.111-.028-.224-.051-.332-.008-.042-.021-.081-.03-.121-.03-.119-.058-.238-.093-.354-.009-.026-.02-.049-.028-.078-.043-.125-.088-.251-.141-.374-.005-.015-.015-.028-.02-.044-.058-.131-.12-.261-.192-.387,0-.006-.006-.01-.009-.016-.075-.132-.155-.26-.243-.39h0a4.094,4.094,0,0,0-.287-.374h0a4.549,4.549,0,0,0-.319-.345l0,0h0c-.019-.019-.041-.035-.06-.053l-.113.414Z" transform="translate(6.08 11.173)" fill="none"/>
        <path id="Path_3" data-name="Path 3" d="M20.151,38.1A4.243,4.243,0,0,0,16.5,33.338a4.288,4.288,0,0,0-.8-.03,15.623,15.623,0,0,1,7.5-5.5l7.214,5.547.163.123L37.379,9.34a1.767,1.767,0,0,1,3.4,0L55.57,61.871c.473,1.681,1.925,2.555,3.24,1.951a2.975,2.975,0,0,0,1.527-1.951l4.67-16.583a4.242,4.242,0,0,1,4.079-3.09H83.412a39.985,39.985,0,0,0-79.93,0H19.61l.012-.081Z" transform="translate(-0.831 -0.844)" fill="none"/>
        <path id="Path_4" data-name="Path 4" d="M18.184,30.628a4.236,4.236,0,0,0,4.079-3.092l.22-.779.123-.441c-.062-.015-.121-.031-.185-.042v0h-.013c-.138-.024-.276-.046-.419-.059a4.461,4.461,0,0,0-.452-.022,4.349,4.349,0,0,0-.48.024c-.054,0-.105.015-.156.02-.105.016-.209.028-.313.05-.061.012-.119.028-.179.043-.09.021-.182.043-.271.069-.063.02-.124.043-.186.065-.083.028-.166.057-.248.091-.062.026-.121.054-.184.084s-.153.07-.229.108-.119.067-.179.1-.142.086-.211.132-.115.075-.17.116l-.2.144-.158.136c-.063.053-.123.108-.182.163s-.1.1-.147.147-.11.12-.163.18-.09.1-.135.159-.1.13-.145.2-.081.112-.12.172-.086.139-.128.211-.07.119-.1.181-.075.15-.111.228c-.027.061-.058.12-.085.184-.035.082-.06.167-.092.249-.02.064-.045.122-.063.185-.028.093-.049.188-.074.285-.011.054-.028.11-.039.168a4.043,4.043,0,0,0-.063.416c0,.018-.007.034-.008.05h0c0,.026,0,.054,0,.081h1.47Z" transform="translate(5.905 10.727)" fill="none"/>
        <path id="Path_5" data-name="Path 5" d="M66.914,42.6,59.655,69.115a1.764,1.764,0,0,1-3.4,0L41.839,16.461c-.532-1.947-2.2-2.973-3.726-2.293a3.437,3.437,0,0,0-1.8,2.293L32.683,29.747l.059.049,3.492,2.684a4.235,4.235,0,0,0,5.943-.781,4.294,4.294,0,0,0,.426-.679,15.672,15.672,0,0,1,1.007,9.259L28.433,46.563a4.247,4.247,0,0,0-2.3,5.545,4.168,4.168,0,0,0,.375.707A15.6,15.6,0,0,1,18,49.059l1.237-9.389.026-.193H3.482a39.985,39.985,0,0,0,79.93,0H71A4.246,4.246,0,0,0,66.914,42.6Z" transform="translate(-0.831 4.499)" fill="none"/>
        <path id="Path_6" data-name="Path 6" d="M44.342,1.728A42.667,42.667,0,1,0,86.957,44.394,42.689,42.689,0,0,0,44.342,1.728Zm0,82.712A40.014,40.014,0,0,1,4.376,45.7H20.159l.345-2.621H4.376a39.985,39.985,0,0,1,79.93,0H69.981a4.242,4.242,0,0,0-4.079,3.09l-4.67,16.583A2.975,2.975,0,0,1,59.7,64.706c-1.316.6-2.767-.271-3.24-1.951L41.674,10.223a1.767,1.767,0,0,0-3.4,0L31.479,34.361l-.221.782-1.022,3.629-.123.441-.22.779a4.236,4.236,0,0,1-4.079,3.092h-1.47c-.012.136-.021.273-.021.414a4.194,4.194,0,0,0,.024.436.912.912,0,0,0,.011.109c.016.14.034.277.062.41.007.035.015.066.023.1.021.1.047.193.074.287.016.057.035.119.055.177s.051.148.078.217c.042.105.085.2.132.31.02.041.04.084.062.128l.018.031H27.68a4.238,4.238,0,0,0,4.087-3.12l.6-2.2.113-.414.879-3.208.216-.787,3.634-13.285a3.437,3.437,0,0,1,1.8-2.293c1.526-.68,3.193.346,3.726,2.293L57.146,75.342a1.764,1.764,0,0,0,3.4,0l7.258-26.514A4.246,4.246,0,0,1,71.893,45.7H84.306A40.011,40.011,0,0,1,44.342,84.439Z" transform="translate(-1.725 -1.728)" fill="#fff"/>
        <path id="Path_7" data-name="Path 7" d="M38.48,28.15a4.294,4.294,0,0,1-.426.679,4.235,4.235,0,0,1-5.943.781l-3.492-2.684-.059-.049-.216.787-.879,3.208c.02.018.042.034.06.053h0l0,0a4.549,4.549,0,0,1,.319.345h0a4.094,4.094,0,0,1,.287.374h0c.088.13.167.258.243.39,0,.006.007.011.009.016.072.126.134.256.192.387.005.016.015.03.02.044.054.123.1.249.141.374.008.03.019.053.028.078.035.116.064.235.093.354.008.041.022.08.03.121.023.108.037.222.051.332.008.051.019.1.026.157.012.119.015.239.018.362,0,.047.006.09.006.139a4.851,4.851,0,0,1-3.867,4.749c-.054.011-.109.018-.164.024a4.783,4.783,0,0,1-.811.073,3.974,3.974,0,0,1-.441-.024.871.871,0,0,1-.112-.008c-.135-.015-.266-.036-.4-.06a.269.269,0,0,0-.034,0c-.137-.029-.27-.068-.4-.105l-.123-.037c-.108-.039-.213-.076-.316-.12-.03-.01-.056-.018-.083-.029-.116-.05-.231-.107-.342-.164-.047-.024-.093-.055-.139-.079-.077-.042-.15-.086-.224-.135s-.121-.078-.181-.118c-.075-.054-.15-.11-.224-.167-.053-.045-.105-.093-.156-.135s-.092-.079-.136-.125a3.277,3.277,0,0,1-.267-.273,1.065,1.065,0,0,1-.1-.107c-.054-.06-.1-.122-.155-.19-.027-.034-.051-.067-.077-.1-.1-.138-.193-.281-.278-.423-.008-.011-.016-.028-.023-.039l0,0c-.034-.067-.066-.126-.1-.191l-.018-.031c-.022-.044-.042-.088-.062-.128-.047-.105-.09-.2-.132-.31-.027-.069-.055-.146-.078-.217s-.039-.12-.055-.177c-.027-.094-.053-.192-.074-.287-.008-.035-.016-.066-.023-.1-.028-.133-.046-.27-.062-.41a.912.912,0,0,1-.011-.109A4.194,4.194,0,0,1,19.3,34.4c0-.142.009-.278.021-.414,0-.027,0-.056,0-.081h0c0-.016.005-.032.008-.05a4.042,4.042,0,0,1,.063-.416c.011-.058.028-.113.039-.168.026-.1.046-.191.074-.285.019-.063.043-.121.063-.185.031-.082.057-.167.092-.249.027-.064.058-.123.085-.184.035-.078.071-.155.111-.228s.066-.12.1-.181.085-.143.128-.211.079-.115.12-.172.1-.132.145-.2.089-.108.135-.159.108-.121.163-.18.1-.1.147-.147.119-.111.182-.163l.158-.136.2-.144c.055-.04.112-.079.17-.116s.141-.09.211-.132.119-.066.179-.1.152-.074.229-.108.121-.058.184-.084c.082-.034.164-.062.248-.091.062-.021.123-.045.186-.065.089-.026.181-.047.271-.069.061-.015.119-.031.179-.043.1-.022.207-.034.313-.05.051-.005.1-.016.156-.02a4.349,4.349,0,0,1,.48-.024,4.461,4.461,0,0,1,.452.022c.143.013.282.035.419.059h.013v0c.063.011.123.027.185.042l1.022-3.629.221-.782-.163-.123-7.214-5.547a15.623,15.623,0,0,0-7.5,5.5,4.288,4.288,0,0,1,.8.03,4.243,4.243,0,0,1,3.646,4.762L15.5,33.9l-.012.081-.345,2.621-.026.193L13.878,46.19a15.6,15.6,0,0,0,8.51,3.755,4.168,4.168,0,0,1-.375-.707,4.247,4.247,0,0,1,2.3-5.545l15.177-6.284A15.672,15.672,0,0,0,38.48,28.15Z" transform="translate(3.293 7.369)" fill="#b3b3b3"/>
      </g>
    </g>
  </g>
</svg>
