<svg id="Group_11" data-name="Group 11" xmlns="http://www.w3.org/2000/svg" width="220.852" height="60" viewBox="0 0 220.852 60">
  <g id="Group_8" data-name="Group 8">
    <path id="Path_8" data-name="Path 8" d="M59.929,30A29.964,29.964,0,1,1,29.964,0,29.981,29.981,0,0,1,59.929,30Z" fill="#2f65b0"/>
    <g id="Group_7" data-name="Group 7" transform="translate(1.725 1.728)">
      <path id="Path_9" data-name="Path 9" d="M21.632,28.8a2.808,2.808,0,0,1-2.708,2.068H17.057c.021.043.043.083.065.127h0c0,.007.01.018.015.026.056.095.118.189.184.281.017.024.033.045.051.068.034.045.067.086.1.126a.706.706,0,0,0,.065.071,2.171,2.171,0,0,0,.177.181c.029.03.059.056.09.083s.069.059.1.089.1.075.148.111.079.052.12.078.1.061.148.089c.03.016.061.037.092.053.074.038.15.075.227.109.018.007.036.013.055.019.068.029.138.054.209.079l.081.025c.086.025.174.051.264.07a.179.179,0,0,1,.022,0c.086.016.173.03.262.04a.577.577,0,0,0,.074.005,2.634,2.634,0,0,0,.292.016,3.17,3.17,0,0,0,.538-.048c.037,0,.073-.009.109-.016a3.215,3.215,0,0,0,2.562-3.147c0-.032,0-.061,0-.092,0-.082,0-.161-.012-.24,0-.037-.012-.07-.017-.1-.01-.073-.019-.149-.034-.22-.005-.028-.014-.053-.02-.08-.02-.079-.038-.158-.062-.234-.006-.017-.013-.032-.019-.052-.028-.083-.058-.166-.094-.248,0-.01-.01-.018-.013-.029-.038-.087-.08-.173-.127-.257,0,0,0-.007-.006-.011-.05-.088-.1-.173-.161-.259h0a2.713,2.713,0,0,0-.19-.248h0a3.015,3.015,0,0,0-.212-.229l0,0h0c-.012-.012-.027-.023-.04-.035l-.075.275Z" transform="translate(-1.725 -1.728)" fill="none"/>
      <path id="Path_10" data-name="Path 10" d="M14.527,26.415a2.811,2.811,0,0,0-2.416-3.156,2.842,2.842,0,0,0-.53-.02,10.352,10.352,0,0,1,4.971-3.645l4.78,3.676.108.081,4.5-15.994a1.171,1.171,0,0,1,2.253,0L38,42.167a1.612,1.612,0,0,0,2.147,1.293,1.972,1.972,0,0,0,1.012-1.293l3.095-10.988a2.811,2.811,0,0,1,2.7-2.048h9.492a26.5,26.5,0,0,0-52.965,0H14.169l.008-.054Z" transform="translate(-1.725 -1.728)" fill="none"/>
      <path id="Path_11" data-name="Path 11" d="M17.688,29.131a2.807,2.807,0,0,0,2.7-2.049l.146-.516.081-.292c-.041-.01-.08-.021-.122-.028h-.009c-.091-.016-.183-.03-.278-.039a2.956,2.956,0,0,0-.3-.014,2.882,2.882,0,0,0-.318.016c-.036,0-.07.01-.1.013-.07.011-.139.019-.207.033-.04.008-.079.019-.119.029-.06.014-.121.028-.18.045-.042.014-.082.029-.123.043s-.11.038-.164.06-.08.036-.122.056-.1.046-.152.072l-.119.066c-.046.028-.094.057-.14.088s-.076.05-.112.077l-.131.1-.1.09c-.042.035-.081.071-.121.108s-.065.064-.1.1-.073.08-.108.12-.06.069-.089.106-.065.086-.1.129-.054.074-.08.114-.057.092-.085.139-.046.079-.067.12-.05.1-.073.151-.038.08-.056.122-.04.111-.061.165-.03.081-.042.123c-.019.062-.032.124-.049.189-.007.036-.019.073-.026.111a2.679,2.679,0,0,0-.042.276c0,.012,0,.022-.005.033h0c0,.017,0,.036,0,.054h.974Z" transform="translate(-1.725 -1.728)" fill="none"/>
      <path id="Path_12" data-name="Path 12" d="M45.514,32.938,40.7,50.507a1.169,1.169,0,0,1-2.255,0L28.9,15.617A1.867,1.867,0,0,0,26.43,14.1a2.278,2.278,0,0,0-1.191,1.519l-2.408,8.8.039.032,2.314,1.779a2.806,2.806,0,0,0,3.938-.518,2.846,2.846,0,0,0,.282-.45,10.385,10.385,0,0,1,.667,6.135L20.015,35.563a2.815,2.815,0,0,0-1.521,3.674,2.762,2.762,0,0,0,.248.469A10.334,10.334,0,0,1,13.1,37.217L13.923,31l.017-.128H3.481a26.5,26.5,0,0,0,52.965,0H48.221A2.814,2.814,0,0,0,45.514,32.938Z" transform="translate(-1.725 -1.728)" fill="none"/>
      <path id="Path_13" data-name="Path 13" d="M29.964,1.728A28.272,28.272,0,1,0,58.2,30,28.287,28.287,0,0,0,29.964,1.728Zm0,54.808A26.515,26.515,0,0,1,3.481,30.868H13.94l.229-1.737H3.481a26.5,26.5,0,0,1,52.965,0H46.954a2.811,2.811,0,0,0-2.7,2.048L41.156,42.167a1.972,1.972,0,0,1-1.012,1.293A1.612,1.612,0,0,1,38,42.167L28.2,7.357a1.171,1.171,0,0,0-2.253,0l-4.5,15.994-.146.518-.677,2.4-.081.292-.146.516a2.807,2.807,0,0,1-2.7,2.049h-.974c-.008.09-.014.181-.014.274a2.779,2.779,0,0,0,.016.289.6.6,0,0,0,.007.073c.011.093.022.183.041.272,0,.023.01.044.015.067.014.063.031.128.049.19.011.038.023.079.037.117s.034.1.052.144c.028.07.056.136.087.205l.041.085.012.021h1.867A2.808,2.808,0,0,0,21.632,28.8l.4-1.458.075-.275.582-2.125.143-.521,2.408-8.8A2.278,2.278,0,0,1,26.43,14.1,1.867,1.867,0,0,1,28.9,15.617l9.551,34.89a1.169,1.169,0,0,0,2.255,0l4.81-17.569a2.814,2.814,0,0,1,2.707-2.07h8.225A26.513,26.513,0,0,1,29.964,56.535Z" transform="translate(-1.725 -1.728)" fill="#fff"/>
      <path id="Path_14" data-name="Path 14" d="M29.405,25.264a2.846,2.846,0,0,1-.282.45,2.806,2.806,0,0,1-3.938.518l-2.314-1.779-.039-.032-.143.521-.582,2.125c.013.012.028.023.04.035h0l0,0a3.015,3.015,0,0,1,.212.229h0a2.713,2.713,0,0,1,.19.248h0c.058.086.111.171.161.259,0,0,0,.007.006.011.048.084.089.17.127.257,0,.011.01.02.013.029.036.081.065.165.094.248.005.02.013.035.019.052.023.077.042.156.062.234.005.027.014.053.02.08.015.072.024.147.034.22.005.034.013.067.017.1.008.079.01.158.012.24,0,.031,0,.06,0,.092a3.215,3.215,0,0,1-2.562,3.147c-.036.007-.072.012-.109.016a3.17,3.17,0,0,1-.538.048,2.634,2.634,0,0,1-.292-.016.577.577,0,0,1-.074-.005c-.089-.01-.176-.024-.262-.04a.179.179,0,0,0-.022,0c-.09-.019-.179-.045-.264-.07l-.081-.025c-.071-.026-.141-.05-.209-.079-.02-.007-.037-.012-.055-.019-.077-.033-.153-.071-.227-.109-.031-.016-.062-.036-.092-.053-.051-.028-.1-.057-.148-.089s-.08-.051-.12-.078-.1-.073-.148-.111-.07-.061-.1-.089-.061-.053-.09-.083a2.171,2.171,0,0,1-.177-.181.706.706,0,0,1-.065-.071c-.036-.04-.069-.081-.1-.126-.018-.023-.034-.044-.051-.068-.066-.091-.128-.186-.184-.281-.005-.008-.011-.018-.015-.026h0c-.022-.044-.044-.084-.065-.127l-.012-.021L17,30.762c-.031-.07-.06-.136-.087-.205-.018-.046-.037-.1-.052-.144s-.026-.08-.037-.117c-.018-.063-.035-.127-.049-.19-.005-.023-.011-.044-.015-.067-.019-.088-.03-.179-.041-.272a.6.6,0,0,1-.007-.073,2.779,2.779,0,0,1-.016-.289c0-.094.006-.184.014-.274,0-.018,0-.037,0-.054h0c0-.011,0-.021.005-.033a2.679,2.679,0,0,1,.042-.276c.007-.038.019-.075.026-.111.017-.064.03-.127.049-.189.012-.042.028-.08.042-.123s.038-.111.061-.165.038-.081.056-.122.047-.1.073-.151.044-.08.067-.12.056-.095.085-.139.053-.076.08-.114.063-.088.1-.129.059-.072.089-.106.071-.08.108-.12.064-.064.1-.1.079-.073.121-.108l.1-.09.131-.1c.036-.027.074-.053.112-.077s.094-.06.14-.088l.119-.066c.05-.025.1-.049.152-.072s.08-.039.122-.056.109-.041.164-.06.081-.029.123-.043c.059-.017.12-.031.18-.045.04-.01.079-.021.119-.029.069-.014.137-.022.207-.033.034,0,.068-.011.1-.013a2.882,2.882,0,0,1,.318-.016,2.956,2.956,0,0,1,.3.014c.095.009.187.023.278.039H20.5c.042.007.081.018.122.028l.677-2.4.146-.518-.108-.081-4.78-3.676a10.352,10.352,0,0,0-4.971,3.645,2.842,2.842,0,0,1,.53.02,2.811,2.811,0,0,1,2.416,3.156l-.35,2.662-.008.054-.229,1.737L13.923,31l-.82,6.222a10.334,10.334,0,0,0,5.639,2.489,2.762,2.762,0,0,1-.248-.469,2.815,2.815,0,0,1,1.521-3.674L30.072,31.4A10.385,10.385,0,0,0,29.405,25.264Z" transform="translate(-1.725 -1.728)" fill="#b3b3b3"/>
    </g>
  </g>
  <g id="Group_9" data-name="Group 9" transform="translate(68.202 15.595)">
    <path id="Path_15" data-name="Path 15" d="M85.266,34.385a4.735,4.735,0,0,1-1.782,3.906,7.736,7.736,0,0,1-4.958,1.426,11.62,11.62,0,0,1-5.177-1.1V35.011a21.142,21.142,0,0,0,3.132,1.164,9.244,9.244,0,0,0,2.344.339,3.33,3.33,0,0,0,1.957-.488,1.67,1.67,0,0,0,.681-1.452,1.6,1.6,0,0,0-.3-.957,3.348,3.348,0,0,0-.882-.808,23.068,23.068,0,0,0-2.369-1.239A11.179,11.179,0,0,1,75.4,30.054a5.667,5.667,0,0,1-1.338-1.69,4.821,4.821,0,0,1-.5-2.253,4.732,4.732,0,0,1,1.644-3.818,6.825,6.825,0,0,1,4.545-1.39,10.726,10.726,0,0,1,2.719.338,18.734,18.734,0,0,1,2.707.952l-1.251,3.017a18.355,18.355,0,0,0-2.419-.839,7.8,7.8,0,0,0-1.882-.238,2.492,2.492,0,0,0-1.688.513,1.692,1.692,0,0,0-.588,1.339,1.655,1.655,0,0,0,.238.9,2.6,2.6,0,0,0,.756.739A23.187,23.187,0,0,0,80.8,28.9a9.782,9.782,0,0,1,3.513,2.46A4.807,4.807,0,0,1,85.266,34.385Z" transform="translate(-73.35 -15.595)" fill="#565655"/>
    <path id="Path_16" data-name="Path 16" d="M101.209,26.874a5.6,5.6,0,0,1-1.845,4.519,7.88,7.88,0,0,1-5.246,1.565H92.456v6.509H88.579v-18.3h5.839A7.764,7.764,0,0,1,99.477,22.6,5.231,5.231,0,0,1,101.209,26.874Zm-8.753,2.9h1.275a4.24,4.24,0,0,0,2.676-.707,2.477,2.477,0,0,0,.888-2.059A2.542,2.542,0,0,0,96.551,25a3.486,3.486,0,0,0-2.332-.651H92.456Z" transform="translate(-73.35 -15.595)" fill="#565655"/>
    <path id="Path_17" data-name="Path 17" d="M115.451,34.385a4.737,4.737,0,0,1-1.782,3.906,7.736,7.736,0,0,1-4.958,1.426,11.615,11.615,0,0,1-5.176-1.1V35.011a21.111,21.111,0,0,0,3.132,1.164,9.242,9.242,0,0,0,2.344.339,3.329,3.329,0,0,0,1.957-.488,1.67,1.67,0,0,0,.681-1.452,1.6,1.6,0,0,0-.3-.957,3.357,3.357,0,0,0-.881-.808,23.122,23.122,0,0,0-2.37-1.239,11.187,11.187,0,0,1-2.513-1.515,5.663,5.663,0,0,1-1.338-1.69,4.817,4.817,0,0,1-.5-2.253,4.734,4.734,0,0,1,1.644-3.818,6.827,6.827,0,0,1,4.546-1.39,10.726,10.726,0,0,1,2.719.338,18.761,18.761,0,0,1,2.708.952l-1.251,3.017a18.378,18.378,0,0,0-2.42-.839,7.8,7.8,0,0,0-1.882-.238,2.494,2.494,0,0,0-1.688.513,1.692,1.692,0,0,0-.587,1.339,1.66,1.66,0,0,0,.237.9,2.606,2.606,0,0,0,.757.739,23.048,23.048,0,0,0,2.457,1.283,9.8,9.8,0,0,1,3.514,2.46A4.814,4.814,0,0,1,115.451,34.385Zm-.175-18.79v.338q-1.05,1.052-1.932,2.1a15.418,15.418,0,0,0-1.269,1.671h-4.464a13.42,13.42,0,0,0-1.038-1.408q-.675-.819-2.163-2.36v-.338h2.538a16.371,16.371,0,0,1,2.863,2.2,14.039,14.039,0,0,1,2.927-2.2Z" transform="translate(-73.35 -15.595)" fill="#565655"/>
    <path id="Path_18" data-name="Path 18" d="M129.556,34.385a4.735,4.735,0,0,1-1.783,3.906,7.733,7.733,0,0,1-4.957,1.426,11.618,11.618,0,0,1-5.176-1.1V35.011a21.1,21.1,0,0,0,3.131,1.164,9.243,9.243,0,0,0,2.345.339,3.324,3.324,0,0,0,1.956-.488,1.669,1.669,0,0,0,.683-1.452,1.608,1.608,0,0,0-.3-.957,3.352,3.352,0,0,0-.883-.808,22.959,22.959,0,0,0-2.369-1.239,11.14,11.14,0,0,1-2.513-1.515,5.647,5.647,0,0,1-1.338-1.69,4.817,4.817,0,0,1-.5-2.253,4.731,4.731,0,0,1,1.644-3.818,6.827,6.827,0,0,1,4.546-1.39,10.712,10.712,0,0,1,2.718.338,18.761,18.761,0,0,1,2.708.952l-1.25,3.017a18.429,18.429,0,0,0-2.42-.839,7.793,7.793,0,0,0-1.881-.238,2.494,2.494,0,0,0-1.689.513,1.689,1.689,0,0,0-.587,1.339,1.652,1.652,0,0,0,.237.9,2.589,2.589,0,0,0,.756.739,23.21,23.21,0,0,0,2.458,1.283,9.8,9.8,0,0,1,3.513,2.46A4.808,4.808,0,0,1,129.556,34.385Z" transform="translate(-73.35 -15.595)" fill="#565655"/>
    <path id="Path_19" data-name="Path 19" d="M143.4,39.467H132.87v-18.3H143.4v3.18h-6.652v4.018h6.189v3.18h-6.189v4.719H143.4Z" transform="translate(-73.35 -15.595)" fill="#565655"/>
    <path id="Path_20" data-name="Path 20" d="M165.055,39.467l-1.325-4.356h-6.665l-1.325,4.356h-4.177l6.452-18.377h4.739l6.477,18.377Zm-2.25-7.611q-1.839-5.921-2.071-6.7t-.33-1.227q-.414,1.6-2.364,7.925Z" transform="translate(-73.35 -15.595)" fill="#565655"/>
    <path id="Path_21" data-name="Path 21" d="M188.613,21.166h3.914l-6.215,18.3h-4.227l-6.2-18.3H179.8l3.438,10.891q.287.966.593,2.248t.383,1.783a31.718,31.718,0,0,1,.937-4.031Z" transform="translate(-73.35 -15.595)" fill="#565655"/>
    <path id="Path_22" data-name="Path 22" d="M211.42,30.292q0,4.544-2.25,6.985a9.748,9.748,0,0,1-12.9,0q-2.25-2.441-2.251-7.01t2.257-6.979a8.438,8.438,0,0,1,6.471-2.41,8.32,8.32,0,0,1,6.445,2.429Q211.42,25.735,211.42,30.292Zm-13.342,0a7.647,7.647,0,0,0,1.163,4.619,4.062,4.062,0,0,0,3.476,1.552q4.638,0,4.639-6.171t-4.614-6.184a4.094,4.094,0,0,0-3.489,1.558A7.626,7.626,0,0,0,198.078,30.292Z" transform="translate(-73.35 -15.595)" fill="#565655"/>
    <path id="Path_23" data-name="Path 23" d="M226,34.385a4.735,4.735,0,0,1-1.783,3.906,7.731,7.731,0,0,1-4.957,1.426,11.622,11.622,0,0,1-5.177-1.1V35.011a21.152,21.152,0,0,0,3.132,1.164,9.25,9.25,0,0,0,2.346.339,3.32,3.32,0,0,0,1.955-.488,1.669,1.669,0,0,0,.683-1.452,1.6,1.6,0,0,0-.3-.957,3.331,3.331,0,0,0-.882-.808,23.02,23.02,0,0,0-2.368-1.239,11.128,11.128,0,0,1-2.514-1.515,5.663,5.663,0,0,1-1.338-1.69,4.817,4.817,0,0,1-.5-2.253,4.736,4.736,0,0,1,1.643-3.818,6.832,6.832,0,0,1,4.547-1.39,10.726,10.726,0,0,1,2.719.338,18.845,18.845,0,0,1,2.708.952l-1.251,3.017a18.379,18.379,0,0,0-2.42-.839,7.793,7.793,0,0,0-1.881-.238,2.489,2.489,0,0,0-1.688.513,1.687,1.687,0,0,0-.588,1.339,1.66,1.66,0,0,0,.237.9,2.614,2.614,0,0,0,.756.739,23.318,23.318,0,0,0,2.458,1.283,9.8,9.8,0,0,1,3.514,2.46A4.814,4.814,0,0,1,226,34.385Zm-.175-18.79v.338q-1.05,1.052-1.933,2.1a15.383,15.383,0,0,0-1.268,1.671H218.16a13.565,13.565,0,0,0-1.038-1.408q-.675-.819-2.163-2.36v-.338H217.5a16.459,16.459,0,0,1,2.864,2.2,14,14,0,0,1,2.926-2.2Z" transform="translate(-73.35 -15.595)" fill="#565655"/>
  </g>
  <g id="Group_10" data-name="Group 10" transform="translate(170.735 45.253)">
    <path id="Path_24" data-name="Path 24" d="M175.883,54.645V45.387h1.961v7.637h3.75v1.621Z" transform="translate(-175.883 -45.253)" fill="#2f65b0"/>
    <path id="Path_25" data-name="Path 25" d="M183.2,54.645V45.387h1.961v9.257Z" transform="translate(-175.883 -45.253)" fill="#2f65b0"/>
    <path id="Path_26" data-name="Path 26" d="M187.489,45.387h2.879a5.533,5.533,0,0,1,2.855.56,1.952,1.952,0,0,1,.89,1.783,2.246,2.246,0,0,1-.391,1.361,1.553,1.553,0,0,1-1.033.64v.063a2.041,2.041,0,0,1,1.269.734,2.4,2.4,0,0,1,.388,1.432,2.354,2.354,0,0,1-.915,1.975,3.944,3.944,0,0,1-2.482.709h-3.46Zm1.962,3.666h1.138a2.084,2.084,0,0,0,1.155-.246.925.925,0,0,0,.358-.818.822.822,0,0,0-.39-.763,2.506,2.506,0,0,0-1.231-.23h-1.03Zm0,1.558v2.413h1.277a1.894,1.894,0,0,0,1.2-.311,1.142,1.142,0,0,0,.385-.95q0-1.151-1.644-1.152Z" transform="translate(-175.883 -45.253)" fill="#2f65b0"/>
    <path id="Path_27" data-name="Path 27" d="M201.518,54.645h-5.325V45.387h5.325V47h-3.364v2.033h3.132v1.608h-3.132v2.388h3.364Z" transform="translate(-175.883 -45.253)" fill="#2f65b0"/>
    <path id="Path_28" data-name="Path 28" d="M205.409,51.091v3.554h-1.96V45.387h2.694a4.6,4.6,0,0,1,2.789.687,2.738,2.738,0,0,1,.455,3.539,2.962,2.962,0,0,1-1.271,1q2.088,3.122,2.72,4.034H208.66l-2.207-3.554Zm0-1.6h.633a2.422,2.422,0,0,0,1.372-.309,1.108,1.108,0,0,0,.443-.976,1.014,1.014,0,0,0-.453-.937A2.735,2.735,0,0,0,206,47h-.6Z" transform="translate(-175.883 -45.253)" fill="#2f65b0"/>
    <path id="Path_29" data-name="Path 29" d="M217.326,54.645H212V45.387h5.326V47h-3.365v2.033h3.13v1.608h-3.13v2.388h3.365Z" transform="translate(-175.883 -45.253)" fill="#2f65b0"/>
    <path id="Path_30" data-name="Path 30" d="M223.183,46.887a2,2,0,0,0-1.715.833,3.882,3.882,0,0,0-.607,2.321q0,3.1,2.322,3.1a7.308,7.308,0,0,0,2.358-.488V54.3a6.552,6.552,0,0,1-2.542.475,3.878,3.878,0,0,1-3.087-1.225,5.2,5.2,0,0,1-1.068-3.518,5.758,5.758,0,0,1,.524-2.529,3.806,3.806,0,0,1,1.509-1.666,4.466,4.466,0,0,1,2.306-.579,6.213,6.213,0,0,1,2.707.654l-.632,1.6a10.411,10.411,0,0,0-1.045-.43A3.076,3.076,0,0,0,223.183,46.887Z" transform="translate(-175.883 -45.253)" fill="#2f65b0"/>
  </g>
</svg>
