<?xml version="1.0" standalone="no"?>
<!DOCTYPE svg PUBLIC "-//W3C//DTD SVG 20010904//EN"
 "http://www.w3.org/TR/2001/REC-SVG-20010904/DTD/svg10.dtd">
<svg version="1.0" xmlns="http://www.w3.org/2000/svg"
 width="728.000000pt" height="728.000000pt" viewBox="0 0 728.000000 728.000000"
 preserveAspectRatio="xMidYMid meet">
<metadata>
Created by potrace 1.14, written by Peter Selinger 2001-2017
</metadata>
<g transform="translate(0.000000,728.000000) scale(0.100000,-0.100000)"
fill="#000000" stroke="none">
<path d="M3418 7275 c-1 -1 -43 -6 -92 -10 -49 -4 -98 -8 -110 -10 -11 -2 -41
-6 -66 -9 -25 -3 -54 -8 -65 -10 -11 -2 -40 -7 -65 -11 -64 -10 -79 -13 -98
-19 -9 -3 -33 -8 -52 -11 -19 -3 -71 -15 -115 -26 -44 -12 -88 -22 -98 -24 -9
-2 -21 -6 -25 -9 -5 -3 -19 -7 -33 -10 -41 -8 -219 -72 -324 -116 -55 -23
-118 -49 -140 -58 -22 -9 -43 -20 -46 -25 -3 -5 -9 -9 -12 -8 -19 1 -273 -135
-339 -180 -14 -11 -31 -19 -37 -19 -6 0 -11 -4 -11 -9 0 -5 -13 -14 -30 -21
-16 -7 -30 -15 -30 -19 0 -4 -16 -15 -35 -25 -19 -11 -35 -23 -35 -28 0 -4 -5
-8 -11 -8 -9 0 -74 -47 -149 -107 -81 -65 -115 -94 -179 -151 -125 -112 -227
-217 -366 -377 -11 -13 -29 -36 -40 -51 -11 -15 -25 -32 -30 -38 -6 -6 -24
-29 -40 -51 -17 -22 -34 -45 -40 -52 -5 -7 -15 -18 -21 -26 -6 -7 -13 -17 -15
-22 -5 -11 -81 -127 -89 -135 -7 -7 -29 -43 -37 -60 -4 -8 -18 -33 -32 -55
-53 -83 -154 -286 -211 -422 -23 -54 -45 -107 -49 -118 -5 -11 -14 -33 -19
-50 -6 -16 -13 -39 -18 -50 -4 -11 -8 -24 -10 -30 -1 -5 -10 -32 -19 -59 -9
-27 -19 -61 -22 -75 -2 -14 -9 -31 -15 -38 -6 -7 -8 -13 -5 -13 4 0 0 -18 -8
-41 -8 -22 -14 -43 -13 -47 1 -4 -4 -27 -11 -52 -7 -25 -15 -56 -17 -70 -2
-14 -7 -36 -10 -50 -7 -30 -9 -38 -28 -153 -9 -48 -15 -91 -14 -95 1 -4 -1
-20 -5 -37 -28 -128 -29 -722 -2 -865 2 -9 6 -41 10 -71 5 -51 8 -68 20 -129
3 -14 8 -43 10 -64 3 -21 8 -42 10 -46 3 -4 7 -25 10 -46 4 -22 9 -48 12 -59
7 -22 10 -31 16 -60 9 -39 67 -231 91 -301 47 -138 185 -455 206 -474 3 -3 15
-26 27 -52 13 -26 40 -76 61 -110 21 -35 45 -74 53 -87 8 -14 17 -30 22 -35 4
-6 39 -58 78 -115 40 -57 77 -111 85 -120 7 -9 45 -56 85 -106 109 -136 259
-292 400 -417 35 -32 74 -67 86 -78 12 -11 25 -20 27 -20 3 0 18 -11 33 -25
44 -39 203 -155 214 -155 5 0 9 -4 9 -10 0 -5 5 -10 11 -10 6 0 17 -6 24 -12
32 -29 45 -38 52 -38 4 0 38 -20 75 -44 37 -24 98 -59 135 -77 37 -19 70 -37
73 -40 10 -11 220 -109 234 -109 8 0 16 -4 18 -8 2 -5 23 -16 48 -24 188 -68
365 -127 420 -142 36 -9 74 -19 85 -22 11 -3 31 -7 45 -10 14 -3 45 -10 70
-15 54 -13 58 -14 140 -27 36 -6 83 -14 105 -18 22 -4 58 -8 80 -10 22 -2 65
-6 95 -9 186 -20 485 -20 675 0 39 5 86 9 105 11 19 1 35 3 35 4 0 1 14 3 30
5 17 2 44 6 60 10 17 3 46 8 65 10 19 3 46 7 60 10 14 3 36 8 50 11 44 8 125
26 140 32 8 3 20 6 25 7 53 12 174 48 187 55 10 6 26 10 36 10 10 0 22 3 26 7
3 4 12 8 19 9 71 12 439 176 582 259 33 19 67 38 75 42 70 33 419 276 480 334
9 8 45 39 80 69 76 65 253 241 327 326 28 32 62 70 74 84 43 49 199 261 199
270 0 6 5 10 10 10 6 0 10 6 10 14 0 8 4 16 9 18 23 9 209 342 291 521 68 151
183 473 183 514 0 7 5 13 10 13 6 0 8 3 5 6 -3 3 1 31 9 62 8 31 17 65 19 75
2 10 5 26 8 35 3 9 7 30 10 46 3 16 10 52 15 80 9 47 14 74 27 161 2 17 6 53
9 80 8 90 14 136 20 145 3 6 1 10 -6 10 -8 0 -8 4 -1 13 10 13 9 490 -2 582
-3 28 -8 68 -10 90 -3 22 -5 40 -6 40 -1 0 -3 14 -14 105 -3 25 -8 56 -12 70
-3 14 -7 39 -10 55 -31 183 -134 516 -227 735 -6 14 -11 27 -11 30 -4 21 -141
290 -148 290 -4 0 -8 8 -8 19 0 10 -7 24 -15 31 -8 7 -15 16 -15 21 0 16 -138
228 -223 342 -302 406 -654 723 -1090 981 -74 44 -372 196 -382 195 -3 0 -26
9 -51 21 -26 11 -48 20 -50 20 -1 0 -15 5 -31 12 -15 6 -30 12 -33 13 -3 1
-12 5 -20 8 -71 30 -374 119 -481 141 -97 20 -181 35 -219 41 -25 3 -52 8 -60
10 -8 2 -46 7 -85 11 -38 3 -83 8 -100 11 -38 5 -542 13 -547 8z"/>
</g>
</svg>
